<?xml version="1.0" encoding="UTF-8"?>
<svg id="Layer_1" data-name="Layer 1" xmlns="http://www.w3.org/2000/svg" xmlns:xlink="http://www.w3.org/1999/xlink" viewBox="0 0 1002.24 145.46">
  <defs>
    <style>
      .cls-1 {
        fill: url(#linear-gradient);
      }

      .cls-2 {
        fill: #f1f2f2;
      }
    </style>
    <linearGradient id="linear-gradient" x1="0" y1="72.73" x2="155.16" y2="72.73" gradientUnits="userSpaceOnUse">
      <stop offset=".3" stop-color="#2bb673"/>
      <stop offset="1" stop-color="#00a79d"/>
    </linearGradient>
  </defs>
  <path class="cls-1" d="m155.16,0h-36.97c-7.1,0-13.63,3.88-17.03,10.11l-52.67,96.57c-15.9,29.09-34.58,38.79-48.49,38.79h126.07L155.16,0Z"/>
  <g>
    <path class="cls-2" d="m195.53,32.35h57.51v13.36h-41.62v23.95h39.34v12.81h-39.34v25.37h41.62v13.36h-57.51V32.35Z"/>
    <path class="cls-2" d="m277.36,118.37c-4.72-2.75-8.36-6.67-10.93-11.76-2.57-5.09-3.85-11.12-3.85-18.1v-.06c0-6.94,1.29-12.94,3.88-18.01,2.59-5.07,6.23-8.98,10.93-11.73,4.7-2.75,10.21-4.13,16.53-4.13,5.75,0,10.71,1.1,14.9,3.29,4.19,2.2,7.47,5.1,9.85,8.71,2.38,3.61,3.73,7.59,4.06,11.94v.43h-14.41l-.12-.49c-.62-3.16-2.1-5.86-4.46-8.1-2.36-2.24-5.57-3.36-9.64-3.36-3.2,0-6,.87-8.4,2.62-2.4,1.75-4.26,4.22-5.57,7.42-1.31,3.2-1.97,7.04-1.97,11.51v.06c0,4.52.67,8.37,2,11.58,1.33,3.2,3.2,5.66,5.6,7.36,2.4,1.7,5.2,2.55,8.4,2.55,3.9,0,7.05-1.06,9.45-3.17,2.4-2.11,3.95-4.87,4.65-8.28l.12-.55h14.47l-.06.43c-.41,4.52-1.85,8.58-4.31,12.19s-5.77,6.48-9.91,8.59c-4.15,2.11-8.97,3.17-14.47,3.17-6.44,0-12.03-1.38-16.75-4.12Z"/>
    <path class="cls-2" d="m344.16,118.4c-4.72-2.73-8.38-6.63-10.99-11.7-2.61-5.07-3.91-11.11-3.91-18.13v-.12c0-6.98,1.31-13,3.94-18.07,2.63-5.07,6.3-8.97,11.02-11.7,4.72-2.73,10.24-4.09,16.56-4.09s11.91,1.37,16.65,4.09c4.74,2.73,8.42,6.62,11.05,11.67,2.63,5.05,3.94,11.08,3.94,18.1v.12c0,7.06-1.3,13.12-3.91,18.19-2.61,5.07-6.27,8.96-10.99,11.67-4.72,2.71-10.28,4.06-16.69,4.06s-11.97-1.36-16.69-4.09Zm25.18-10.81c2.38-1.68,4.22-4.13,5.51-7.36,1.29-3.22,1.94-7.11,1.94-11.67v-.12c0-4.51-.66-8.37-1.97-11.58-1.31-3.2-3.17-5.64-5.57-7.33-2.4-1.68-5.22-2.52-8.47-2.52s-5.94.84-8.34,2.52c-2.4,1.68-4.27,4.13-5.6,7.33-1.33,3.2-2,7.06-2,11.58v.12c0,4.56.67,8.45,2,11.67,1.33,3.22,3.2,5.67,5.6,7.36,2.4,1.68,5.22,2.52,8.47,2.52s6.05-.84,8.44-2.52Z"/>
    <path class="cls-2" d="m406.47,67.75h-8.93v-11.82h8.93v-6.22c0-4.27.71-7.78,2.12-10.53,1.42-2.75,3.6-4.79,6.56-6.13,2.96-1.33,6.79-2,11.51-2,1.52,0,3.03.06,4.53.18,1.5.12,2.72.27,3.66.43v10.71c-.66-.08-1.39-.15-2.19-.22-.8-.06-1.61-.09-2.43-.09-3,0-5.2.68-6.62,2.03s-2.12,3.37-2.12,6.03v5.79h13.11v11.82h-12.81v53.44h-15.33v-53.44Z"/>
    <path class="cls-2" d="m445.08,32.35h15.33v88.85h-15.33V32.35Z"/>
    <path class="cls-2" d="m475.43,44.11c-1.64-1.64-2.46-3.61-2.46-5.91s.82-4.32,2.46-5.94c1.64-1.62,3.65-2.43,6.03-2.43s4.45.81,6.1,2.43c1.64,1.62,2.46,3.6,2.46,5.94s-.82,4.27-2.46,5.91-3.67,2.46-6.1,2.46-4.39-.82-6.03-2.46Zm-1.6,11.82h15.33v65.27h-15.33V55.93Z"/>
    <path class="cls-2" d="m516.53,141.67c-4.29-1.58-7.71-3.75-10.25-6.5-2.55-2.75-4.13-5.83-4.74-9.24l-.12-.55h15.02l.25.49c.82,1.89,2.51,3.46,5.08,4.71,2.56,1.25,5.82,1.88,9.76,1.88,5.01,0,8.85-1.23,11.51-3.69s4-5.77,4-9.91v-9.42h-.31c-1.19,2.34-2.78,4.35-4.77,6.03-1.99,1.68-4.31,3-6.96,3.94-2.65.94-5.53,1.42-8.65,1.42-5.46,0-10.21-1.33-14.25-4-4.04-2.67-7.16-6.46-9.36-11.36-2.2-4.9-3.29-10.74-3.29-17.52v-.06c0-6.9,1.12-12.82,3.36-17.76,2.24-4.95,5.39-8.77,9.45-11.48,4.06-2.71,8.85-4.06,14.35-4.06,3.08,0,5.91.52,8.5,1.57,2.59,1.05,4.85,2.49,6.8,4.34s3.54,4.02,4.77,6.53h.37v-11.08h15.33v63.42c0,4.92-1.25,9.25-3.76,12.96s-6.05,6.6-10.65,8.65c-4.6,2.05-10.06,3.08-16.38,3.08-5.75,0-10.77-.79-15.05-2.37Zm23-35.22c2.38-1.7,4.24-4.12,5.57-7.23,1.33-3.12,2-6.77,2-10.96v-.06c0-4.23-.68-7.89-2.03-10.99-1.36-3.1-3.22-5.49-5.6-7.17-2.38-1.68-5.15-2.52-8.31-2.52s-6.14.84-8.56,2.52c-2.42,1.68-4.29,4.06-5.6,7.14-1.31,3.08-1.97,6.75-1.97,11.02v.06c0,4.27.66,7.95,1.97,11.05,1.31,3.1,3.18,5.49,5.6,7.17,2.42,1.68,5.28,2.52,8.56,2.52s5.99-.85,8.38-2.55Z"/>
    <path class="cls-2" d="m575.3,32.35h15.33v34.54h.31c1.72-3.94,4.3-6.98,7.73-9.11,3.43-2.13,7.56-3.2,12.41-3.2s8.8,1.08,12.25,3.23c3.45,2.16,6.12,5.17,8,9.05,1.89,3.88,2.83,8.45,2.83,13.7v40.64h-15.33v-37.62c0-5.01-1.21-8.94-3.63-11.79-2.42-2.85-5.83-4.28-10.22-4.28-2.87,0-5.39.69-7.54,2.06-2.15,1.38-3.83,3.26-5.02,5.66-1.19,2.4-1.79,5.18-1.79,8.34v37.62h-15.33V32.35Z"/>
    <path class="cls-2" d="m655.56,118.06c-3.3-2.96-4.96-7.8-4.96-14.53v-35.77h-9.24v-11.82h9.24v-16.56h15.58v16.56h12.13v11.82h-12.13v34.54c0,3.16.71,5.35,2.12,6.56s3.5,1.82,6.25,1.82c.78,0,1.47-.03,2.06-.09s1.16-.11,1.69-.15v11.51c-.9.12-2,.25-3.29.37s-2.74.18-4.34.18c-6.77,0-11.81-1.48-15.12-4.43Z"/>
    <path class="cls-2" d="m715.62,32.35h56.65v13.36h-40.76v26.29h37.25v12.93h-37.25v36.27h-15.89V32.35Z"/>
    <path class="cls-2" d="m792.25,119.57c-3.35-1.95-5.9-4.75-7.67-8.4-1.77-3.65-2.65-7.98-2.65-12.99v-42.24h15.27v39.16c0,4.64,1.09,8.22,3.26,10.74s5.46,3.79,9.85,3.79c2.18,0,4.16-.38,5.94-1.14,1.79-.76,3.31-1.84,4.59-3.23,1.27-1.39,2.24-3.07,2.89-5.02.66-1.95.99-4.11.99-6.5v-37.8h15.33v65.27h-15.33v-10.22h-.31c-1.15,2.3-2.65,4.32-4.49,6.06-1.85,1.75-4.06,3.09-6.65,4.03-2.59.94-5.52,1.42-8.8,1.42-4.8,0-8.88-.98-12.22-2.92Z"/>
    <path class="cls-2" d="m864.47,118.37c-4.7-2.75-8.3-6.65-10.81-11.7-2.5-5.05-3.76-11.02-3.76-17.92v-.06c0-6.85,1.26-12.84,3.79-17.95s6.07-9.08,10.65-11.91c4.58-2.83,9.98-4.25,16.22-4.25s11.57,1.37,16.1,4.09c4.54,2.73,8.02,6.56,10.47,11.48,2.44,4.93,3.66,10.67,3.66,17.24v4.93h-53.32v-10.22h45.99l-7.39,9.54v-5.91c0-4.27-.66-7.82-1.97-10.65-1.31-2.83-3.12-4.96-5.42-6.37-2.3-1.42-4.95-2.12-7.94-2.12s-5.74.73-8.1,2.19c-2.36,1.46-4.21,3.62-5.54,6.5-1.33,2.87-2,6.36-2,10.47v5.91c0,3.98.67,7.38,2,10.19,1.33,2.81,3.23,4.97,5.7,6.46,2.46,1.5,5.4,2.25,8.8,2.25,2.54,0,4.78-.4,6.71-1.2s3.52-1.84,4.77-3.11c1.25-1.27,2.12-2.65,2.62-4.12l.12-.43h14.29l-.12.68c-.53,2.5-1.52,4.96-2.96,7.36-1.44,2.4-3.37,4.57-5.79,6.5-2.42,1.93-5.3,3.46-8.62,4.59-3.33,1.13-7.1,1.69-11.33,1.69-6.53,0-12.14-1.38-16.84-4.12Z"/>
    <path class="cls-2" d="m921.02,32.35h15.33v88.85h-15.33V32.35Z"/>
    <path class="cls-2" d="m960.21,119.97c-4.04-1.68-7.2-4.05-9.48-7.11-2.28-3.06-3.66-6.6-4.16-10.62l-.06-.55h15.08l.12.55c.57,2.83,1.94,5.03,4.09,6.59,2.15,1.56,5.18,2.34,9.08,2.34,2.5,0,4.64-.31,6.4-.92,1.76-.62,3.13-1.52,4.09-2.71.96-1.19,1.45-2.59,1.45-4.19v-.06c0-1.93-.66-3.5-1.97-4.71-1.31-1.21-3.67-2.21-7.08-2.99l-10.84-2.4c-4.15-.94-7.61-2.24-10.41-3.88-2.79-1.64-4.89-3.68-6.28-6.13-1.4-2.44-2.09-5.28-2.09-8.53v-.06c0-3.98,1.09-7.47,3.26-10.47,2.17-3,5.23-5.34,9.17-7.02,3.94-1.68,8.52-2.52,13.73-2.52s10.06.9,13.92,2.71c3.86,1.81,6.84,4.23,8.96,7.27,2.11,3.04,3.25,6.44,3.42,10.22l.06.68h-14.29l-.06-.49c-.33-2.63-1.52-4.79-3.57-6.5-2.05-1.7-4.86-2.56-8.43-2.56-2.26,0-4.22.33-5.88.99-1.66.66-2.94,1.58-3.82,2.77-.88,1.19-1.32,2.59-1.32,4.19v.06c0,1.23.31,2.34.92,3.32.62.99,1.6,1.84,2.96,2.56,1.35.72,3.16,1.35,5.42,1.88l10.84,2.4c6.77,1.52,11.6,3.68,14.47,6.5,2.87,2.81,4.31,6.58,4.31,11.3v.06c0,4.1-1.17,7.71-3.51,10.81-2.34,3.1-5.57,5.5-9.7,7.2-4.12,1.7-8.86,2.56-14.19,2.56-5.71,0-10.58-.84-14.62-2.52Z"/>
  </g>
</svg>